<?xml version="1.0" encoding="UTF-8"?>
<svg id="Camada_2" data-name="Camada 2" xmlns="http://www.w3.org/2000/svg" viewBox="0 0 149.96 147.9">
  <defs>
    <style>
      .cls-1 {
        fill: #f09bbe;
      }

      .cls-1, .cls-2 {
        stroke-width: 0px;
      }

      .cls-2 {
        fill: #0096e1;
      }
    </style>
  </defs>
  <g id="Camada_1-2" data-name="Camada 1">
    <g id="SvgjsG5612">
      <path class="cls-2" d="M122.86,92.3c-2.3-4.49-4.76-8.82-7.38-12.96-12.48,19.18-33.37,36.35-59.84,47.02l8.86,21.54c27.38-11.04,47.74-31.56,58.37-55.6Z"/>
      <path class="cls-1" d="M68.69,118.57c3.62-1.99,7.12-4.09,10.5-6.29-23.29-11.05-44.84-34.14-57.44-64.78L0,56.27c13.02,31.68,39.11,53.89,68.69,62.3Z"/>
      <path class="cls-2" d="M103.59,21.54L94.73,0c-31.16,12.56-53.23,37.4-62.21,65.75,2.18,3.55,4.47,6.96,6.86,10.24,11.59-22.13,34.35-42.42,64.2-54.45Z"/>
      <path class="cls-1" d="M149.96,91.1c-12.09-29.42-35.45-50.67-62.41-60.29-3.89,2.26-7.64,4.64-11.22,7.14,21.13,11.92,40.29,33.73,51.88,61.92,0,0,21.75-8.77,21.75-8.77Z"/>
      <ellipse class="cls-2" cx="78.17" cy="75.97" rx="13.53" ry="13.4"/>
    </g>
  </g>
</svg>