<?xml version="1.0" encoding="UTF-8"?>
<svg id="Camada_1" data-name="Camada 1" xmlns="http://www.w3.org/2000/svg" viewBox="0 0 554.87 147.9">
  <defs>
    <style>
      .cls-1 {
        fill: #f09bbe;
      }

      .cls-1, .cls-2 {
        stroke-width: 0px;
      }

      .cls-2 {
        fill: #0096e1;
      }
    </style>
  </defs>
  <g id="SvgjsG5612">
    <path class="cls-2" d="M122.86,92.3c-2.3-4.49-4.76-8.82-7.38-12.96-12.48,19.18-33.37,36.35-59.84,47.02l8.86,21.54c27.38-11.04,47.74-31.56,58.37-55.6Z"/>
    <path class="cls-1" d="M68.69,118.57c3.62-1.99,7.12-4.09,10.5-6.29-23.29-11.05-44.84-34.14-57.44-64.78L0,56.27c13.02,31.68,39.11,53.89,68.69,62.3Z"/>
    <path class="cls-2" d="M103.59,21.54L94.73,0c-31.16,12.56-53.23,37.4-62.21,65.75,2.18,3.55,4.47,6.96,6.86,10.24,11.59-22.13,34.35-42.42,64.2-54.45Z"/>
    <path class="cls-1" d="M149.96,91.1c-12.09-29.42-35.45-50.67-62.41-60.29-3.89,2.26-7.64,4.64-11.22,7.14,21.13,11.92,40.29,33.73,51.88,61.92,0,0,21.75-8.77,21.75-8.77Z"/>
    <ellipse class="cls-2" cx="78.17" cy="75.97" rx="13.53" ry="13.4"/>
  </g>
  <g id="SvgjsG5613">
    <path class="cls-2" d="M209.74,112.1c-15.49,0-27.58-7.37-29.78-20.78l15.49-3.51c1,8.02,6.95,12.17,14.89,12.17,6.1,0,10.94-2.67,10.89-8.71-.05-6.73-8.05-8.86-16.84-11.53-10.59-3.27-21.94-7.13-21.94-20.29s10.99-20.83,25.48-20.83c12.69,0,25.48,5.1,28.38,18.8l-14.49,3.56c-1.35-7.13-6.2-10.24-12.99-10.24-6.05,0-11.19,2.47-11.19,8.36,0,5.49,7.1,7.32,15.29,9.75,10.89,3.27,23.78,7.42,23.78,21.67,0,15.19-12.84,21.58-26.98,21.58h0ZM250.56,111.11V39.61h14.99v71.5h-14.99ZM308.18,112.1c-15.49,0-27.58-7.37-29.78-20.78l15.49-3.51c1,8.02,6.95,12.17,14.89,12.17,6.1,0,10.94-2.67,10.89-8.71-.05-6.73-8.05-8.86-16.84-11.53-10.59-3.27-21.94-7.13-21.94-20.29s10.99-20.83,25.48-20.83c12.69,0,25.48,5.1,28.38,18.8l-14.49,3.56c-1.35-7.13-6.2-10.24-12.99-10.24-6.05,0-11.19,2.47-11.19,8.36,0,5.49,7.1,7.32,15.29,9.75,10.89,3.27,23.78,7.42,23.78,21.67,0,15.19-12.84,21.58-26.98,21.58h0ZM380.98,112.1c-21.24,0-36.93-14.3-36.93-36.77s15.69-36.72,36.93-36.72c16.09,0,28.98,8.16,34.13,21.72l-13.99,5.05c-3.2-8.31-10.84-13.11-20.14-13.11-12.44,0-21.99,8.61-21.99,23.06s9.54,23.11,21.99,23.11c9.29,0,16.94-4.85,20.14-13.16l13.99,5.05c-5.15,13.56-18.04,21.77-34.13,21.77h0ZM475.72,111.11l-5.25-14.75h-30.33l-5.25,14.75h-15.34l26.58-71.5h18.34l26.58,71.5h-15.34ZM444.54,83.94h21.54l-10.74-30.33-10.79,30.33ZM531.93,39.61c14.14,0,22.94,10.39,22.94,23.11s-8.79,22.76-22.94,22.76h-15.04v25.63h-14.99V39.61h30.03ZM529.43,73.06c7.49,0,10.99-4.11,10.99-10.54s-3.5-10.49-10.99-10.49h-12.54v21.03h12.54Z"/>
  </g>
</svg>